<svg width="48" height="48" viewBox="0 0 48 48" fill="none" xmlns="http://www.w3.org/2000/svg">
<rect x="0.00012207" y="0.00012207" width="48" height="48" rx="14" fill="#4B0F42"/>
<path d="M39.4287 28.6703H34.5531V33.4655H39.4287V28.6703Z" fill="#FF006E"/>
<path d="M14.8747 31.4625C13.1399 29.6104 12.2712 27.21 12.2686 24.2612C12.2297 22.9114 12.4629 21.5677 12.9542 20.3102C13.4456 19.0528 14.185 17.9074 15.1283 16.9427C17.1674 14.8587 19.914 13.8168 23.3681 13.8168C24.8337 13.819 26.287 14.0836 27.6595 14.5982C28.7568 14.9751 29.7887 15.5209 30.7183 16.2159V19.9279H30.687C28.0055 18.0576 25.5346 17.1224 23.2744 17.1224C21.0142 17.1224 19.23 17.8023 17.9217 19.1621C17.2781 19.837 16.7761 20.6342 16.4451 21.5066C16.1141 22.379 15.9608 23.309 15.9944 24.2416C15.9944 26.2813 16.6082 27.9445 17.8359 29.2314C19.1363 30.5755 20.9296 31.2462 23.2159 31.2437C25.8168 31.2437 28.3085 30.3319 30.691 28.5085H30.7221V32.2205C29.7719 32.9052 28.7182 33.433 27.601 33.7834C26.112 34.2752 24.5536 34.5232 22.9857 34.518C19.4849 34.5232 16.7812 33.5048 14.8747 31.4625Z" fill="#E9E9E9"/>
</svg>
