<svg width="48" height="48" viewBox="0 0 48 48" fill="none" xmlns="http://www.w3.org/2000/svg">
<rect y="0.000488281" width="48" height="48" rx="14" fill="black"/>
<path fill-rule="evenodd" clip-rule="evenodd" d="M18.0015 21.2218C19.1628 19.1011 21.4158 17.6646 24.0015 17.6646C27.071 17.6646 29.6716 19.6889 30.5337 22.4789C30.7825 23.2841 31.5263 23.8065 32.3369 23.8065C34.416 23.8065 36.1014 25.492 36.1014 27.571C36.1014 29.6501 34.416 31.3355 32.3369 31.3355C31.5362 31.3355 30.798 31.0872 30.1893 30.6634C29.3725 30.0946 28.2461 29.9679 27.2923 30.493C26.3176 31.0296 25.1975 31.3355 24.0015 31.3355C22.8055 31.3355 21.6855 31.0296 20.7107 30.493C19.7569 29.9679 18.6306 30.0946 17.8137 30.6634C17.205 31.0872 16.4668 31.3355 15.6661 31.3355C15.3795 31.3355 15.1003 31.3035 14.832 31.2428L14.8322 31.2419C14.5288 31.173 14.2423 31.0692 13.976 30.9358C13.491 30.6917 13.066 30.3458 12.7291 29.9262C12.3869 29.4989 12.139 28.9992 12.0078 28.4626C11.9384 28.1768 11.9016 27.8782 11.9016 27.571C11.9016 27.4182 11.9107 27.2674 11.9284 27.1193C11.9439 26.9923 11.966 26.8647 11.995 26.7372C12.0556 26.4703 12.1432 26.2165 12.2542 25.978C12.5157 25.4191 12.9104 24.9349 13.3976 24.5665C13.7935 24.2679 14.2469 24.048 14.7314 23.9235C15.0303 23.8471 15.3434 23.8065 15.6661 23.8065C15.6818 23.8065 15.6975 23.8063 15.7132 23.8059C15.9729 23.8095 16.2363 23.8401 16.4998 23.8999C17.2293 24.0656 17.857 24.4304 18.3436 24.9239C18.9253 25.5138 19.875 25.5205 20.4649 24.9389C21.0548 24.3572 21.0615 23.4075 20.4799 22.8176C19.7964 22.1244 18.9566 21.572 18.0015 21.2218ZM14.8652 20.8521C16.3138 17.2275 19.8566 14.6646 24.0015 14.6646C28.147 14.6646 31.6902 17.2282 33.1384 20.8535C36.4966 21.2499 39.1014 24.1063 39.1014 27.571C39.1014 31.307 36.0729 34.3355 32.3369 34.3355C30.9527 34.3355 29.6617 33.9182 28.5882 33.2024C27.2173 33.9262 25.6551 34.3355 24.0015 34.3355C22.3479 34.3355 20.7858 33.9262 19.4149 33.2024C18.3413 33.9182 17.0503 34.3355 15.6661 34.3355C14.5855 34.3355 13.564 34.0822 12.6579 33.6316C10.8879 32.7513 9.55806 31.1184 9.08725 29.1517C8.90427 28.3927 8.85103 27.593 8.94696 26.7832C9.03421 26.0309 9.2449 25.3163 9.55824 24.66C10.4368 22.8123 12.102 21.4852 14.0383 21.0037C14.3091 20.9363 14.5852 20.8855 14.8652 20.8521Z" fill="white"/>
</svg>
