<svg width="48" height="48" viewBox="0 0 48 48" fill="none" xmlns="http://www.w3.org/2000/svg">
<rect y="0.000244141" width="48" height="48" rx="14" fill="#FF7700"/>
<path fill-rule="evenodd" clip-rule="evenodd" d="M29.9641 34.5197C29.8539 34.5197 29.7506 34.472 29.6783 34.3881C29.606 34.3042 29.5738 34.1924 29.5887 34.0829L29.7494 32.91C29.7758 32.7202 29.9354 32.5781 30.1248 32.5781H32.0784C33.7268 32.5478 34.4981 31.6952 34.4981 29.8946C34.4981 29.2901 34.4178 28.6716 34.3386 28.0729L34.2754 27.5884C34.148 26.7742 34.0264 26.002 34.0264 25.1343C33.9965 23.2032 34.792 22.0023 36.391 21.569C34.8 21.2546 34.0264 20.098 34.0264 18.1482C34.0264 17.312 34.1423 16.5782 34.2651 15.8001L34.3386 15.2469C34.4178 14.6505 34.4981 14.0344 34.4981 13.4555C34.4981 11.6514 33.7486 10.8337 32.0681 10.8046H16.7786C15.1073 10.8337 14.3589 11.6514 14.3589 13.4555C14.3589 14.0356 14.4393 14.6447 14.5173 15.2341L14.5793 15.7174C14.7148 16.5735 14.8318 17.3085 14.8318 18.1529C14.8605 20.0619 14.0651 21.2522 12.4673 21.6855C14.0352 21.9942 14.8318 23.195 14.8318 25.139C14.8318 26.009 14.7021 26.8267 14.577 27.6187L14.5196 28.0717C14.4404 28.6716 14.3589 29.2901 14.3589 29.8946C14.3589 31.6952 15.1314 32.5478 16.7912 32.5781H24.8871C25.096 32.5781 25.2659 32.7505 25.2659 32.9625V34.1353C25.2659 34.3473 25.096 34.5197 24.8871 34.5197H16.6581C13.6151 34.5197 12.0058 32.9753 12.0058 30.053C12.0058 29.311 12.0942 28.4911 12.2928 27.3974L12.3548 26.8301C12.434 26.1406 12.5086 25.4895 12.5086 24.8513C12.5086 23.393 11.7923 22.6429 10.3185 22.5579C10.1176 22.5474 9.96033 22.3785 9.96033 22.1747V21.1136C9.96033 20.9086 10.1187 20.7398 10.3208 20.7293C12.1952 20.6326 12.4787 19.5261 12.5086 18.4569C12.5086 17.5496 12.3697 16.5991 12.2583 15.8351C12.1229 14.8369 12.0058 13.9785 12.0058 13.1364C12.0058 10.3795 13.6691 8.86182 16.6902 8.86182H32.168C35.1891 8.86182 36.8524 10.3795 36.8524 13.1364C36.8524 13.9715 36.7376 14.8229 36.6148 15.7244C36.4633 16.7692 36.3496 17.6136 36.3496 18.4674C36.3496 19.1103 36.3496 20.6163 38.5375 20.7293C38.7395 20.7398 38.8967 20.9086 38.8967 21.1136V22.1747C38.8967 22.3785 38.7395 22.5474 38.5386 22.5579C37.0911 22.6394 36.3955 23.3721 36.3496 24.8629C36.3496 25.6479 36.4656 26.4679 36.5884 27.3356C36.7124 28.1929 36.8524 29.1515 36.8524 30.053C36.8524 32.9753 35.2431 34.5197 32.199 34.5197H29.9641Z" fill="white"/>
<path fill-rule="evenodd" clip-rule="evenodd" d="M22.487 31.6688C22.0552 31.6688 21.745 32.003 21.7973 32.4114L22.56 38.3019C22.6135 38.7104 22.9858 38.9227 23.3884 38.7718L25.01 38.165C25.4126 38.0142 25.7411 38.2288 25.7411 38.6407V43.1843C25.7411 43.5961 25.825 43.6066 25.9284 43.2063L27.8979 35.5649C28.0013 35.1646 27.7458 34.9291 27.331 35.0417L26.5914 35.2424C26.1766 35.3549 25.8846 35.1136 25.9442 34.7052L26.28 32.4102C26.3396 32.0018 26.0355 31.6688 25.6024 31.6688H22.487Z" fill="white"/>
<path fill-rule="evenodd" clip-rule="evenodd" d="M23.5733 17.4792C23.1876 17.4792 22.8709 17.8012 22.8709 18.1948V19.3611C22.8709 19.7558 23.1876 20.0778 23.5733 20.0778H26.9342C27.3199 20.0778 27.6366 20.401 27.6366 20.7946V21.7741C27.6366 22.1677 27.3199 22.4909 26.9342 22.4909H23.5733C23.1876 22.4909 22.8709 22.8129 22.8709 23.2076V24.6166C22.8709 25.0113 23.1876 25.3333 23.5733 25.3333H28.2174C28.6031 25.3333 28.9187 25.6553 28.9187 26.0501V27.1034C28.9187 27.4981 28.6031 27.8202 28.2174 27.8202H20.6409C20.2552 27.8202 19.9385 27.4981 19.9385 27.1034V15.708C19.9385 15.3132 20.2552 14.9912 20.6409 14.9912H28.2174C28.6031 14.9912 28.9187 15.3132 28.9187 15.708V16.7624C28.9187 17.156 28.6031 17.4792 28.2174 17.4792H23.5733Z" fill="white"/>
</svg>
