<svg width="104" height="104" viewBox="0 0 104 104" fill="none" xmlns="http://www.w3.org/2000/svg">
<rect width="104" height="104" rx="16" fill="white"/>
<path d="M23.5678 59.78C23.5678 61.22 23.8278 62.44 24.3478 63.44C24.8678 64.44 25.5478 65.26 26.3878 65.9C27.2678 66.5 28.2878 66.96 29.4478 67.28C30.6078 67.56 31.8078 67.7 33.0478 67.7C33.8878 67.7 34.7878 67.64 35.7478 67.52C36.7078 67.36 37.6078 67.08 38.4478 66.68C39.2878 66.28 39.9878 65.74 40.5478 65.06C41.1078 64.34 41.3878 63.44 41.3878 62.36C41.3878 61.2 41.0078 60.26 40.2478 59.54C39.5278 58.82 38.5678 58.22 37.3678 57.74C36.1678 57.26 34.8078 56.84 33.2878 56.48C31.7678 56.12 30.2278 55.72 28.6678 55.28C27.0678 54.88 25.5078 54.4 23.9878 53.84C22.4678 53.24 21.1078 52.48 19.9078 51.56C18.7078 50.64 17.7278 49.5 16.9678 48.14C16.2478 46.74 15.8878 45.06 15.8878 43.1C15.8878 40.9 16.3478 39 17.2678 37.4C18.2278 35.76 19.4678 34.4 20.9878 33.32C22.5078 32.24 24.2278 31.44 26.1478 30.92C28.0678 30.4 29.9878 30.14 31.9078 30.14C34.1478 30.14 36.2878 30.4 38.3278 30.92C40.4078 31.4 42.2478 32.2 43.8478 33.32C45.4478 34.44 46.7078 35.88 47.6278 37.64C48.5878 39.36 49.0678 41.46 49.0678 43.94H39.9478C39.8678 42.66 39.5878 41.6 39.1078 40.76C38.6678 39.92 38.0678 39.26 37.3078 38.78C36.5478 38.3 35.6678 37.96 34.6678 37.76C33.7078 37.56 32.6478 37.46 31.4878 37.46C30.7278 37.46 29.9678 37.54 29.2078 37.7C28.4478 37.86 27.7478 38.14 27.1078 38.54C26.5078 38.94 26.0078 39.44 25.6078 40.04C25.2078 40.64 25.0078 41.4 25.0078 42.32C25.0078 43.16 25.1678 43.84 25.4878 44.36C25.8078 44.88 26.4278 45.36 27.3478 45.8C28.3078 46.24 29.6078 46.68 31.2478 47.12C32.9278 47.56 35.1078 48.12 37.7878 48.8C38.5878 48.96 39.6878 49.26 41.0878 49.7C42.5278 50.1 43.9478 50.76 45.3478 51.68C46.7478 52.6 47.9478 53.84 48.9478 55.4C49.9878 56.92 50.5078 58.88 50.5078 61.28C50.5078 63.24 50.1278 65.06 49.3678 66.74C48.6078 68.42 47.4678 69.88 45.9478 71.12C44.4678 72.32 42.6078 73.26 40.3678 73.94C38.1678 74.62 35.6078 74.96 32.6878 74.96C30.3278 74.96 28.0278 74.66 25.7878 74.06C23.5878 73.5 21.6278 72.6 19.9078 71.36C18.2278 70.12 16.8878 68.54 15.8878 66.62C14.8878 64.7 14.4078 62.42 14.4478 59.78H23.5678ZM65.5327 51.32H72.8527C73.9327 51.32 74.9727 51.24 75.9727 51.08C76.9727 50.92 77.8527 50.62 78.6127 50.18C79.3727 49.7 79.9727 49.04 80.4127 48.2C80.8927 47.36 81.1327 46.26 81.1327 44.9C81.1327 43.54 80.8927 42.44 80.4127 41.6C79.9727 40.76 79.3727 40.12 78.6127 39.68C77.8527 39.2 76.9727 38.88 75.9727 38.72C74.9727 38.56 73.9327 38.48 72.8527 38.48H65.5327V51.32ZM56.1127 31.16H75.4327C78.1127 31.16 80.3927 31.56 82.2727 32.36C84.1527 33.12 85.6727 34.14 86.8327 35.42C88.0327 36.7 88.8927 38.16 89.4127 39.8C89.9727 41.44 90.2527 43.14 90.2527 44.9C90.2527 46.62 89.9727 48.32 89.4127 50C88.8927 51.64 88.0327 53.1 86.8327 54.38C85.6727 55.66 84.1527 56.7 82.2727 57.5C80.3927 58.26 78.1127 58.64 75.4327 58.64H65.5327V74H56.1127V31.16Z" fill="black"/>
</svg>
