<svg width="36" height="16" viewBox="0 0 36 16" fill="none" xmlns="http://www.w3.org/2000/svg">
<g clip-path="url(#clip0_58_191)">
<path d="M0 0.500244V1.52651H7.00733V0.500244H0ZM8.00014 0.500244V1.52651H17.9859C17.9859 1.52651 16.9659 0.500244 15.615 0.500244H8.00014ZM19.9448 0.500244V1.52651H25.9861L25.6275 0.500244H19.9448ZM30.3173 0.500244L29.9587 1.52651H35.9451V0.500244H30.3173ZM0 2.49607V3.52233H7.00733V2.49607H0ZM8.00014 2.49753V3.52237H19.1447C19.1447 3.52237 19.0145 2.73251 18.7875 2.49753H8.00014ZM19.9448 2.49753V3.52237H26.6484L26.3165 2.49753H19.9448ZM29.6001 2.49753L29.2683 3.52237H35.9451V2.49753H29.6001ZM2.01373 4.49189V5.51962H5.04842V4.49189H2.01373ZM10.0139 4.49189V5.51962H13.0486V4.49189H10.0139ZM16.0003 4.49189V5.51962H19.035C19.035 5.51962 19.2277 4.97688 19.2277 4.49189H16.0003ZM21.9586 4.49189V5.51962H27.3389L26.9803 4.49189H21.9586ZM28.9392 4.49189L28.5792 5.51962H33.9862V4.49189H28.9392ZM2.01373 6.48922V7.51548H5.04842V6.48922H2.01373ZM10.0139 6.48922V7.51548H17.7651C17.7651 7.51548 18.4136 6.98891 18.6201 6.48922H10.0139ZM21.9586 6.48922V7.51548H24.9933V6.94421L25.186 7.51548H30.7449L30.9516 6.94421V7.51548H33.9863V6.48922H28.2895L27.9872 7.35847L27.6834 6.48922H21.9586ZM2.01373 8.48504V9.51131H5.04842V8.48504H2.01373ZM10.0139 8.48504V9.51131H18.6201C18.4135 9.01327 17.7651 8.48504 17.7651 8.48504H10.0139ZM21.9586 8.48504V9.51131H24.9933V8.48504H21.9586ZM25.5445 8.48504L25.9115 9.51131H30.0797L30.4284 8.48504H25.5445ZM30.9515 8.48504V9.51131H33.9862V8.48504H30.9515ZM2.01373 10.4809V11.5071H5.04842V10.4809H2.01373ZM10.0139 10.4809V11.5071H13.0486V10.4809H10.0139ZM16.0003 10.4809V11.5071H19.2276C19.2276 11.0228 19.035 10.4809 19.035 10.4809H16.0003ZM21.9586 10.4809V11.5071H24.9933V10.4809H21.9586ZM26.2336 10.4809L26.5894 11.5071H29.3836L29.7422 10.4809H26.2336ZM30.9515 10.4809V11.5071H33.9862V10.4809H30.9515ZM0.054828 12.4767V13.5044H7.06216V12.4767H0.054828ZM8.00014 12.4767V13.5044H18.7875C19.0145 13.2691 19.1447 12.4767 19.1447 12.4767H8.00014ZM19.9997 12.4767V13.5044H24.9933V12.4767H19.9997ZM26.924 12.4767L27.2897 13.5044H28.7114L29.0545 12.4767H26.924ZM30.9515 12.4767V13.5044H36V12.4767H30.9515ZM0.054828 14.474V15.5002H7.06216V14.474H0.054828ZM8.00014 14.474V15.4988H15.615C16.9659 15.4988 17.9859 14.474 17.9859 14.474H8.00014ZM19.9997 14.474V15.5002H24.9933V14.474H19.9997ZM27.6173 14.474L27.9689 15.4974L28.0294 15.4988L28.3866 14.474H27.6173ZM30.9515 14.474V15.5002H36V14.474H30.9515Z" fill="#1F70C1"/>
</g>
<defs>
<clipPath id="clip0_58_191">
<rect width="36" height="15" fill="white" transform="translate(0 0.500244)"/>
</clipPath>
</defs>
</svg>
