<svg width="48" height="48" viewBox="0 0 48 48" fill="none" xmlns="http://www.w3.org/2000/svg">
<rect y="0.000244141" width="48" height="48" rx="14" fill="#181B30"/>
<path fill-rule="evenodd" clip-rule="evenodd" d="M36.6841 26.1006C36.7418 25.524 36.7994 24.9475 36.7994 24.3709C36.7994 17.3369 31.0916 11.5714 24 11.5714C16.9084 11.5714 11.1428 17.3369 11.1428 24.4286C11.1428 31.5202 16.9084 37.2857 24 37.2857C27.8629 37.2857 31.3798 35.556 33.7437 32.8462L38.5868 28.0032L36.6841 26.1006ZM30.8033 24.4286C30.8033 28.2915 27.6899 31.4049 23.827 31.4049C19.9641 31.4049 16.9084 28.2339 16.9084 24.4286C16.9084 20.6234 20.0218 17.4523 23.827 17.4523C27.6323 17.4523 30.8033 20.5657 30.8033 24.4286Z" fill="url(#paint0_linear_10_588)"/>
<defs>
<linearGradient id="paint0_linear_10_588" x1="11.1428" y1="11.5714" x2="11.1428" y2="37.2857" gradientUnits="userSpaceOnUse">
<stop stop-color="#2AF598"/>
<stop offset="1" stop-color="#009EFD"/>
</linearGradient>
</defs>
</svg>
