<svg width="48" height="48" viewBox="0 0 48 48" fill="none" xmlns="http://www.w3.org/2000/svg">
<rect width="48" height="48" rx="14" fill="#212F49"/>
<mask id="mask0_9_426" style="mask-type:luminance" maskUnits="userSpaceOnUse" x="14" y="12" width="20" height="24">
<path d="M23.5901 12.6969L14.9814 17.8211C14.7764 18.0261 14.5714 18.231 14.5714 18.436V35.4484C14.5714 35.6534 14.7764 35.8584 14.9814 35.8584H19.2857C19.4907 35.8584 19.6956 35.6534 19.6956 35.4484V21.3056C19.6956 21.1006 19.9006 20.6906 20.1056 20.6906L23.5901 18.641C23.795 18.436 24.205 18.436 24.4099 18.641L27.8944 20.6906C28.0994 20.8956 28.3043 21.1006 28.3043 21.3056V35.4484C28.3043 35.6534 28.5093 35.8584 28.7143 35.8584H33.0186C33.2236 35.8584 33.4286 35.6534 33.4286 35.4484V18.436C33.4286 18.231 33.2236 17.8211 33.0186 17.8211L24.4099 12.6969C24.205 12.6969 24.205 12.4919 24 12.4919C24 12.4919 23.795 12.6969 23.5901 12.6969Z" fill="white"/>
</mask>
<g mask="url(#mask0_9_426)">
<mask id="mask1_9_426" style="mask-type:luminance" maskUnits="userSpaceOnUse" x="-82" y="-344" width="1220" height="1727">
<path d="M1137.8 -343.539H-81.7639V1382.3H1137.8V-343.539Z" fill="white"/>
</mask>
<g mask="url(#mask1_9_426)">
<path d="M35.4784 10.4421H12.5219V37.908H35.4784V10.4421Z" fill="#FF5253"/>
</g>
</g>
</svg>
