<svg width="48" height="48" viewBox="0 0 48 48" fill="none" xmlns="http://www.w3.org/2000/svg">
<rect y="0.000366211" width="48" height="48" rx="14" fill="url(#paint0_linear_10_1100)"/>
<path d="M33.5055 26.7678C32.5644 19.7833 25.0947 11.9066 21.0646 9.5C26.2963 14.983 21.5903 22.302 21.5903 22.302C22.7918 20.0443 21.9407 17.6129 21.0646 16.8438C21.2398 19.0519 18.5113 20.4164 15.3073 26.3212C12.744 31.0451 15.8413 35.6994 17.7103 37.2377C17.3098 35.9277 17.1847 33.2184 18.211 32.6974C18.8451 35.0544 20.9848 38.8206 25.0697 38.4782C30.1011 38.0564 34.5818 34.7567 33.5055 26.7678Z" fill="white"/>
<defs>
<linearGradient id="paint0_linear_10_1100" x1="-3.1059e-08" y1="26.1429" x2="48" y2="26.1429" gradientUnits="userSpaceOnUse">
<stop stop-color="#F37021"/>
<stop offset="1" stop-color="#EB008B"/>
</linearGradient>
</defs>
</svg>
